<svg width="28" height="28" viewBox="0 0 28 28" fill="none" xmlns="http://www.w3.org/2000/svg">
<path fill-rule="evenodd" clip-rule="evenodd" d="M17.0001 2.99987C17.0001 1.34252 15.657 0.000976562 14 0.000976562C12.343 0.000976562 10.9999 1.34252 10.9999 2.99987V10.9996H2.99985C1.34316 10.9996 6.10352e-05 12.343 6.10352e-05 13.9997C6.10352e-05 15.657 1.34316 16.9998 2.99985 16.9998H10.9999V24.9996C10.9999 26.6569 12.343 27.9997 14 27.9997C15.657 27.9997 17.0001 26.6569 17.0001 24.9996V16.9998H24.9998C26.6568 16.9998 27.9999 15.657 27.9999 13.9997C27.9999 12.343 26.6568 10.9996 24.9998 10.9996H17.0001V2.99987Z" fill="white"/>
</svg>
