<svg width="40" height="56" viewBox="0 0 40 56" fill="none" xmlns="http://www.w3.org/2000/svg">
<path fill-rule="evenodd" clip-rule="evenodd" d="M35 0H4.99995C2.23854 0 0 2.23874 0 5.00018V34.6544V37.7402V44.7258V46.6231V51.7598H0.000494165C0.000165129 51.782 0 51.8042 0 51.8265C0 54.1308 1.76709 55.9999 3.94731 55.9999C5.12934 55.9999 6.19007 55.4503 6.91351 54.5798C7.10702 54.5958 7.30258 54.6039 7.49993 54.6039L19.9999 43.5208L32.5 54.6039C32.743 54.6039 32.9833 54.5916 33.2203 54.5675C33.9289 55.4451 34.9718 55.9999 36.1347 55.9999C38.2693 55.9999 40 54.1308 40 51.8265C40 51.8042 39.9998 51.782 39.9995 51.7598H40V46.6231V44.7258V37.7402V34.6544V5.00018C40 2.23874 37.7611 0 35 0ZM33.9998 5.99964H5.99988V48.0002L19.9998 36.0003L33.9998 48.0002V5.99964Z" fill="#E9486D" fill-opacity="0.58"/>
<path fill-rule="evenodd" clip-rule="evenodd" d="M35 0H4.99995C2.23854 0 0 2.23874 0 5.00018V34.6544V37.7402V44.7258V46.6231V51.7598H0.000494165C0.000165129 51.782 0 51.8042 0 51.8265C0 54.1308 1.76709 55.9999 3.94731 55.9999C5.12934 55.9999 6.19007 55.4503 6.91351 54.5798C7.10702 54.5958 7.30258 54.6039 7.49993 54.6039L19.9999 43.5208L32.5 54.6039C32.743 54.6039 32.9833 54.5916 33.2203 54.5675C33.9289 55.4451 34.9718 55.9999 36.1347 55.9999C38.2693 55.9999 40 54.1308 40 51.8265C40 51.8042 39.9998 51.782 39.9995 51.7598H40V46.6231V44.7258V37.7402V34.6544V5.00018C40 2.23874 37.7611 0 35 0ZM33.9998 5.99964H5.99988V48.0002L19.9998 36.0003L33.9998 48.0002V5.99964Z" fill="#F9BF2D" fill-opacity="0.75"/>
</svg>
