<svg width="44" height="44" viewBox="0 0 44 44" fill="none" xmlns="http://www.w3.org/2000/svg">
<path fill-rule="evenodd" clip-rule="evenodd" d="M22.0008 17.9646L5.85846 1.82219C4.74383 0.707706 2.93728 0.707706 1.82265 1.82219C0.708347 2.93668 0.708347 4.74402 1.82265 5.85851L17.9648 22.0005L1.82265 38.1426C0.708347 39.257 0.708347 41.0643 1.82265 42.1789C2.93728 43.2934 4.74383 43.2934 5.85846 42.1789L22.0008 26.0365L38.1433 42.1789C39.2576 43.2934 41.0644 43.2934 42.1788 42.1789C43.2931 41.0643 43.2931 39.257 42.1788 38.1426L26.0368 22.0005L42.1788 5.85851C43.2931 4.74402 43.2931 2.93668 42.1788 1.82219C41.0644 0.707706 39.2576 0.707706 38.1433 1.82219L22.0008 17.9646Z" fill="#AAAAAA"/>
</svg>
