<svg width="66" height="66" viewBox="0 0 66 66" fill="none" xmlns="http://www.w3.org/2000/svg">
<path d="M28.4864 47.7584C28.8725 48.1314 29.3897 48.3378 29.9266 48.3331C30.4634 48.3285 30.9769 48.1131 31.3566 47.7334C31.7362 47.3538 31.9515 46.8402 31.9562 46.3032C31.9608 45.7663 31.7545 45.249 31.3815 44.8628L21.1442 34.6239C20.758 34.2509 20.2408 34.0445 19.704 34.0491C19.1672 34.0538 18.6536 34.2692 18.274 34.6489C17.8944 35.0285 17.6791 35.5421 17.6744 36.0791C17.6697 36.616 17.8761 37.1333 18.2491 37.5195L28.4864 47.7584Z" fill="#5E6870"/>
<path d="M8.01166 39.5674L26.4388 57.9974L30.5338 62.093C30.9199 62.466 31.4371 62.6724 31.974 62.6677C32.5108 62.6631 33.0243 62.4477 33.4039 62.068C33.7836 61.6884 33.9989 61.1747 34.0035 60.6378C34.0082 60.1009 33.8018 59.5836 33.4289 59.1974L29.3339 55.1019L10.9068 36.6718L6.81185 32.5763C6.62175 32.3861 6.39608 32.2353 6.14771 32.1324C5.89933 32.0295 5.63313 31.9766 5.36429 31.9766C5.09546 31.9766 4.82925 32.0295 4.58088 32.1324C4.33251 32.2353 4.10683 32.3861 3.91674 32.5763C3.72664 32.7664 3.57585 32.9921 3.47297 33.2405C3.37009 33.4889 3.31714 33.7552 3.31714 34.024C3.31714 34.2929 3.37009 34.5592 3.47297 34.8076C3.57585 35.056 3.72664 35.2817 3.91674 35.4718L8.01166 39.5674Z" fill="#5E6870"/>
<path d="M23.1917 64.1404C23.382 63.9504 23.533 63.7247 23.636 63.4763C23.739 63.2279 23.792 62.9616 23.792 62.6926C23.792 62.4237 23.739 62.1574 23.636 61.909C23.533 61.6606 23.382 61.4349 23.1917 61.2449L4.76454 42.8148C4.37838 42.4418 3.86119 42.2354 3.32435 42.2401C2.78751 42.2447 2.27398 42.4601 1.89437 42.8398C1.51475 43.2194 1.29942 43.7331 1.29476 44.27C1.29009 44.8069 1.49646 45.3242 1.86943 45.7104L20.2966 64.1404C20.4866 64.3308 20.7122 64.4818 20.9606 64.5848C21.209 64.6878 21.4753 64.7408 21.7442 64.7408C22.0131 64.7408 22.2793 64.6878 22.5277 64.5848C22.7761 64.4818 23.0017 64.3308 23.1917 64.1404Z" fill="#66CCFF"/>
<path d="M36.6763 10.8982L55.1034 29.3283L59.1984 33.4238C59.5845 33.7969 60.1017 34.0033 60.6386 33.9986C61.1754 33.9939 61.6889 33.7786 62.0685 33.3989C62.4482 33.0192 62.6635 32.5056 62.6682 31.9687C62.6728 31.4318 62.4664 30.9145 62.0935 30.5283L57.9986 26.4327L39.5714 8.00268L35.4765 3.90711C35.0903 3.53409 34.5731 3.32769 34.0363 3.33235C33.4994 3.33702 32.9859 3.55238 32.6063 3.93206C32.2267 4.31173 32.0113 4.82534 32.0067 5.36226C32.002 5.89918 32.2084 6.41646 32.5813 6.80268L36.6763 10.8982Z" fill="#5E6870"/>
<path d="M47.7612 31.3762C48.145 30.9922 48.3607 30.4715 48.3607 29.9285C48.3607 29.3855 48.145 28.8647 47.7612 28.4807L37.5239 18.2418C37.3338 18.0517 37.1081 17.9008 36.8597 17.7979C36.6114 17.695 36.3452 17.6421 36.0763 17.6421C35.8075 17.6421 35.5413 17.695 35.2929 17.7979C35.0445 17.9008 34.8189 18.0517 34.6288 18.2418C34.4387 18.4319 34.2879 18.6576 34.185 18.906C34.0821 19.1544 34.0292 19.4207 34.0292 19.6896C34.0292 19.9584 34.0821 20.2247 34.185 20.4731C34.2879 20.7215 34.4387 20.9472 34.6288 21.1373L44.8661 31.3762C45.0561 31.5666 45.2817 31.7176 45.5301 31.8206C45.7785 31.9236 46.0447 31.9767 46.3137 31.9767C46.5826 31.9767 46.8488 31.9236 47.0972 31.8206C47.3456 31.7176 47.5712 31.5666 47.7612 31.3762Z" fill="#5E6870"/>
<path d="M61.2458 23.1851C61.4359 23.3752 61.6615 23.526 61.9099 23.6289C62.1583 23.7318 62.4245 23.7847 62.6933 23.7847C62.9622 23.7847 63.2284 23.7318 63.4767 23.6289C63.7251 23.526 63.9508 23.3752 64.1409 23.1851C64.331 22.9949 64.4818 22.7692 64.5846 22.5208C64.6875 22.2724 64.7405 22.0061 64.7405 21.7373C64.7405 21.4684 64.6875 21.2021 64.5846 20.9537C64.4818 20.7053 64.331 20.4796 64.1409 20.2895L45.7137 1.85946C45.5236 1.66933 45.2979 1.51852 45.0496 1.41562C44.8012 1.31273 44.535 1.25977 44.2661 1.25977C43.9973 1.25977 43.7311 1.31273 43.4827 1.41562C43.2344 1.51852 43.0087 1.66933 42.8186 1.85946C42.6285 2.04958 42.4777 2.27529 42.3748 2.5237C42.2719 2.77211 42.219 3.03836 42.219 3.30724C42.219 3.57612 42.2719 3.84236 42.3748 4.09077C42.4777 4.33918 42.6285 4.56489 42.8186 4.75502L61.2458 23.1851Z" fill="#5E6870"/>
<path d="M59.27 15.4178L59.8699 14.8178C60.4413 14.248 60.8947 13.5711 61.204 12.8258C61.5133 12.0805 61.6726 11.2814 61.6726 10.4744C61.6726 9.66745 61.5133 8.8684 61.204 8.12309C60.8947 7.37777 60.4413 6.70084 59.8699 6.13108C59.3002 5.5596 58.6234 5.10617 57.8782 4.79679C57.133 4.4874 56.3341 4.32815 55.5272 4.32815C54.7204 4.32815 53.9215 4.4874 53.1763 4.79679C52.4311 5.10617 51.7542 5.5596 51.1846 6.13108L50.5847 6.73108L45.7137 1.85941C45.1198 1.26754 44.4149 0.798653 43.6395 0.479593C42.8641 0.160533 42.0334 -0.00243205 41.195 2.74288e-05C40.3565 -0.00243205 39.5258 0.160533 38.7505 0.479593C37.9751 0.798653 37.2702 1.26754 36.6762 1.85941C36.119 2.42165 35.6724 3.08366 35.3597 3.81095C34.1732 2.67959 32.597 2.04826 30.9577 2.04781C30.1186 2.04402 29.287 2.20636 28.511 2.52546C27.7349 2.84455 27.0296 3.31411 26.4358 3.90706C25.842 4.50001 25.3714 5.20463 25.0511 5.98032C24.7308 6.75601 24.5671 7.58742 24.5696 8.42665C24.5676 9.26607 24.7317 10.0976 25.0525 10.8733C25.3734 11.6489 25.8446 12.3534 26.4389 12.9461L35.4334 21.942L21.9488 35.4287L12.9543 26.4328C12.3604 25.8409 11.6555 25.372 10.8801 25.053C10.1047 24.7339 9.27402 24.5709 8.43557 24.5734C7.59648 24.5696 6.76493 24.732 5.98885 25.0511C5.21277 25.3702 4.5075 25.8397 3.91369 26.4327C3.31988 27.0256 2.84927 27.7302 2.52898 28.5059C2.20868 29.2816 2.04504 30.113 2.04748 30.9522C2.04819 32.5957 2.68511 34.175 3.82468 35.3591C3.11626 35.6662 2.44674 36.0942 1.86935 36.6717C1.275 37.2644 0.803816 37.9689 0.482982 38.7445C0.162148 39.5202 -0.00199447 40.3517 1.82885e-05 41.1912C-0.00199447 42.0306 0.162148 42.8621 0.482982 43.6378C0.803816 44.4134 1.275 45.1179 1.86935 45.7106L6.74027 50.5823L6.09941 51.2232C5.52802 51.793 5.07466 52.4699 4.76532 53.2152C4.45598 53.9606 4.29675 54.7596 4.29675 55.5666C4.29675 56.3736 4.45598 57.1726 4.76532 57.9179C5.07466 58.6632 5.52802 59.3402 6.09941 59.9099C6.31235 60.1229 6.7157 60.2785 7.12519 60.3789C8.18168 61.2451 9.34669 61.7099 10.6796 61.7079C12.2439 61.7099 13.7098 61.1038 14.9035 59.9079H14.8421L15.4502 59.2915L20.2945 64.1365C20.8884 64.7284 21.5933 65.1973 22.3687 65.5164C23.1441 65.8354 23.9748 65.9984 24.8132 65.9959C26.4369 65.998 28.0871 65.3816 29.332 64.1365C29.9094 63.5591 30.3373 62.8894 30.6444 62.1809C31.8308 63.3155 33.4091 63.9485 35.0506 63.9481C36.6742 63.9502 38.3244 63.3338 39.5693 62.0888C40.1611 61.4947 40.6299 60.7897 40.9489 60.0142C41.2679 59.2387 41.4309 58.4079 41.4284 57.5693C41.4309 56.7307 41.2679 55.8999 40.9489 55.1244C40.6299 54.3489 40.1611 53.6439 39.5693 53.0499L30.6157 44.0949L44.1003 30.6082L53.0539 39.5632C53.6479 40.155 54.3527 40.6239 55.1281 40.943C55.9035 41.262 56.7342 41.425 57.5727 41.4226C59.1963 41.4246 60.8466 40.8082 62.0914 39.5632C62.6832 38.9691 63.152 38.2641 63.471 37.4886C63.79 36.7131 63.953 35.8823 63.9505 35.0437C63.9504 33.4021 63.3176 31.8237 62.1835 30.6369C62.892 30.3297 63.5615 29.9017 64.1389 29.3243C64.7307 28.7302 65.1995 28.0252 65.5185 27.2497C65.8375 26.4742 66.0004 25.6434 65.998 24.8048C66.0004 23.9662 65.8375 23.1354 65.5185 22.3599C65.1995 21.5844 64.7307 20.8794 64.1389 20.2854L59.27 15.4178ZM8.4929 56.5352C8.35081 56.4488 8.18595 56.4074 8.01993 56.4164H8.4929V56.5352ZM11.8876 57.0164C11.698 57.2072 11.4724 57.3585 11.2239 57.4615C10.9755 57.5645 10.709 57.6171 10.44 57.6164C10.0368 57.6037 9.6467 57.4703 9.32007 57.2335L9.46544 57.0164C9.06209 56.6109 8.63213 56.099 8.62803 55.5686C8.63008 55.0382 8.70583 54.5263 9.10919 54.1208H9.04981L9.0191 54.0922L9.619 53.4922L12.5141 56.3877L11.8876 57.0164ZM61.2458 26.4328C61.0319 26.6441 60.7783 26.8112 60.4997 26.9243C60.2211 27.0375 59.9229 27.0945 59.6222 27.0922C59.3215 27.0945 59.0233 27.0375 58.7446 26.9243C58.466 26.8112 58.2125 26.6441 57.9985 26.4328L57.9801 26.4205C57.7933 26.2364 57.573 26.0898 57.3311 25.9884C56.9571 25.8356 56.5465 25.7963 56.1504 25.8753C55.7542 25.9543 55.3901 26.1482 55.1034 26.4328C54.7223 26.8184 54.5088 27.3388 54.5092 27.881C54.5096 28.4232 54.7238 28.9433 55.1055 29.3284L59.2004 33.4239C59.6345 33.858 59.8576 34.4396 59.8597 35.0478C59.8576 35.656 59.6345 36.2376 59.2004 36.6717C58.9865 36.8831 58.7329 37.0501 58.4543 37.1633C58.1757 37.2764 57.8775 37.3334 57.5768 37.3311C57.276 37.3334 56.9778 37.2764 56.6992 37.1633C56.4206 37.0501 56.167 36.8831 55.9531 36.6717L45.552 26.269C45.362 26.0786 45.1364 25.9276 44.888 25.8246C44.6396 25.7216 44.3733 25.6686 44.1044 25.6686C43.8355 25.6686 43.5693 25.7216 43.3209 25.8246C43.0725 25.9276 42.8469 26.0786 42.6569 26.269L26.2772 42.6512C25.8963 43.0321 25.6773 43.5604 25.6773 44.099C25.6773 44.6376 25.8963 45.1659 26.2772 45.5468L36.6783 55.9495C37.1124 56.3836 37.3355 56.9652 37.3376 57.5734C37.3355 58.1816 37.1124 58.7632 36.6783 59.1973C36.4643 59.4087 36.2108 59.5757 35.9322 59.6889C35.6536 59.802 35.3554 59.859 35.0546 59.8567C34.7539 59.859 34.4557 59.802 34.1771 59.6889C33.8985 59.5757 33.6449 59.4087 33.431 59.1973L29.3361 55.1017C29.1472 54.9111 28.9223 54.76 28.6745 54.657C28.4267 54.554 28.161 54.5012 27.8926 54.5017H27.8885C27.4837 54.5034 27.0885 54.6247 26.7523 54.8502C26.4161 55.0756 26.1539 55.3954 25.9987 55.7693C25.8963 56.0191 25.8431 56.2833 25.8431 56.5495V56.5536C25.844 57.0881 26.0551 57.6008 26.4307 57.9809L26.443 57.9993C26.8771 58.4335 27.1003 59.015 27.1023 59.6232C27.1003 60.2314 26.8771 60.813 26.443 61.2471C26.2291 61.4585 25.9755 61.6255 25.6969 61.7387C25.4183 61.8518 25.1201 61.9089 24.8194 61.9065C24.5187 61.9089 24.2205 61.8518 23.9418 61.7387C23.6632 61.6255 23.4097 61.4585 23.1957 61.2471L4.76856 42.8171C4.5532 42.605 4.38261 42.3517 4.2669 42.0724C4.15119 41.7931 4.09272 41.4935 4.09495 41.1912C4.09247 40.8898 4.15017 40.5909 4.26466 40.3121C4.37916 40.0333 4.54814 39.7801 4.76171 39.5675C4.97528 39.3548 5.22915 39.1869 5.50842 39.0737C5.7877 38.9604 6.08677 38.904 6.38811 38.9079C6.9962 38.9099 7.57768 39.1331 8.01174 39.5673L8.03017 39.5795C8.21854 39.7638 8.43762 39.9113 8.67922 40.0116C8.9192 40.1095 9.17557 40.1609 9.43473 40.1632L9.4593 40.1673L9.47773 40.1632C9.87998 40.1605 10.2725 40.039 10.6058 39.8138C10.9392 39.5886 11.1985 39.2699 11.3512 38.8976C11.5039 38.5236 11.5433 38.113 11.4642 37.7168C11.3852 37.3206 11.1914 36.9564 10.9069 36.6697L6.81193 32.5741C6.59771 32.3622 6.4281 32.1095 6.31311 31.8309C6.19812 31.5524 6.14008 31.2536 6.14241 30.9522C6.13993 30.6508 6.19763 30.352 6.31213 30.0732C6.42662 29.7944 6.5956 29.5412 6.80917 29.3286C7.02275 29.1159 7.27661 28.948 7.55588 28.8348C7.83516 28.7215 8.13423 28.6651 8.43557 28.669C9.04367 28.671 9.62515 28.8942 10.0592 29.3284L20.5013 39.772C20.8821 40.1529 21.4103 40.372 21.9488 40.372C22.4873 40.372 23.0156 40.1529 23.3964 39.772L39.7761 23.3898C40.1569 23.0089 40.376 22.4806 40.376 21.942C40.376 21.4034 40.1569 20.8751 39.7761 20.4942L29.334 10.0505C29.1199 9.83809 28.9504 9.58501 28.8355 9.30615C28.7205 9.0273 28.6624 8.72828 28.6645 8.42665C28.662 8.12525 28.7197 7.82639 28.8342 7.54758C28.9487 7.26877 29.1177 7.01562 29.3313 6.80297C29.5448 6.59032 29.7987 6.42244 30.078 6.30918C30.3573 6.19592 30.6563 6.13955 30.9577 6.14337C31.5658 6.14542 32.1472 6.36863 32.5813 6.80276L36.6762 10.8983C36.6885 10.9106 36.7029 10.9127 36.7151 10.9249C37.0919 11.29 37.5951 11.4954 38.1197 11.4983H38.1217C38.665 11.4967 39.1858 11.2812 39.5714 10.8983C39.9542 10.5136 40.1698 9.99333 40.1713 9.45054V9.44644C40.1694 8.91937 39.9631 8.41359 39.5959 8.03552C39.5857 8.02528 39.5836 8.01095 39.5734 8.00071C39.3585 7.78916 39.1884 7.53659 39.073 7.25798C38.9576 6.97937 38.8994 6.68041 38.9018 6.37887C38.8994 6.07747 38.9571 5.77861 39.0716 5.4998C39.186 5.22099 39.355 4.96784 39.5686 4.75519C39.7822 4.54254 40.036 4.37466 40.3153 4.2614C40.5946 4.14814 40.8937 4.09176 41.195 4.09559C41.8031 4.09764 42.3846 4.32085 42.8186 4.75498L49.1371 11.0744C49.5179 11.4553 50.0462 11.6744 50.5847 11.6744C51.1231 11.6744 51.6514 11.4553 52.0322 11.0744L54.0797 9.02665C54.2693 8.83584 54.4949 8.68456 54.7433 8.58157C54.9918 8.47858 55.2583 8.42592 55.5272 8.42665C55.7962 8.42592 56.0627 8.47858 56.3111 8.58157C56.5596 8.68456 56.7852 8.83584 56.9748 9.02665C57.1656 9.21628 57.3168 9.4419 57.4198 9.69041C57.5228 9.93893 57.5754 10.2054 57.5747 10.4744C57.5754 10.7434 57.5228 11.0099 57.4198 11.2584C57.3168 11.507 57.1656 11.7326 56.9748 11.9222L54.9273 13.97C54.5448 14.3549 54.3293 14.8751 54.3274 15.4178C54.3274 15.9563 54.5465 16.4847 54.9273 16.8656L61.2458 23.185C61.6799 23.6191 61.903 24.2007 61.9051 24.8089C61.903 25.4171 61.6799 25.9987 61.2458 26.4328Z" fill="#5E6870"/>
</svg>
