<svg width="76" height="76" viewBox="0 0 76 76" fill="none" xmlns="http://www.w3.org/2000/svg">
<path d="M38 0C17.0465 0 0 17.0465 0 38C0 58.9535 17.0465 76 38 76C58.9534 76 76 58.9535 76 38C76 17.0465 58.9534 0 38 0ZM35.2846 6.23651C31.2375 10.515 28.0398 15.5233 25.8615 20.995C22.204 19.6425 18.7962 17.6926 15.7768 15.2249C21.1342 9.97734 27.9469 6.85918 35.2846 6.23651ZM13.1322 16.1797L13.1786 16.2212C16.6505 19.2785 20.655 21.6714 24.9923 23.2805C23.5224 27.6348 22.7142 32.185 22.5944 36.7791H4.94472C5.21221 29.1729 8.10528 21.8942 13.1322 16.1797ZM14.3922 61.2074C8.6012 55.32 5.2299 47.4741 4.94472 39.2209H22.5944C22.7409 44.6174 23.8495 49.904 25.8079 54.8707C21.7291 56.2766 17.9234 58.3756 14.5582 61.0755L14.3922 61.2074ZM17.2272 62.1034C20.1254 59.9672 23.3359 58.2911 26.7455 57.1343C28.8797 61.7885 31.7683 66.0582 35.2944 69.7708C28.6132 69.1877 22.2885 66.5035 17.2272 62.1034ZM36.779 67.788C33.6531 64.4229 31.0719 60.5903 29.1287 56.4286C31.6306 55.7819 34.1963 55.4142 36.779 55.3323V67.788ZM36.779 52.8928C33.8579 52.9766 30.9567 53.4028 28.1349 54.1626C26.2313 49.4031 25.1824 44.3449 25.0362 39.2209H36.779V52.8928ZM36.779 36.7791H25.0362C25.1603 32.4449 25.9314 28.1536 27.3242 24.0473C30.3814 24.9606 33.5558 25.4709 36.779 25.5759V36.7791ZM36.779 23.1366C33.8614 23.0354 30.968 22.5686 28.1666 21.7471C30.1862 16.747 33.1053 12.1595 36.779 8.21201V23.1366ZM60.2232 15.2249C57.3164 17.5973 54.0485 19.4893 50.5437 20.829C48.3945 15.4435 45.2546 10.5087 41.2867 6.28047C48.4071 7.01547 55.005 10.1141 60.2232 15.2249ZM39.2209 7.63806C43.0932 11.6798 46.158 16.4238 48.2508 21.6152C45.3208 22.5165 42.2846 23.0273 39.2209 23.134V7.63806ZM39.2209 25.5759C42.5672 25.4675 45.8838 24.909 49.081 23.9154C50.4737 28.0664 51.2383 32.4021 51.3496 36.7791H39.2209V25.5759ZM39.2209 39.2209H51.3496C51.2228 44.385 50.1853 49.4862 48.285 54.2896C45.3326 53.453 42.2882 52.9838 39.2209 52.8928V39.2209ZM39.2209 55.3323C41.9826 55.4251 44.6809 55.8328 47.2888 56.5483C45.2594 60.8984 42.5343 64.8887 39.2209 68.3619V55.3323ZM41.3013 69.7024C44.7396 66.0415 47.5616 61.8473 49.6574 57.2832C52.9179 58.4295 55.9899 60.054 58.7728 62.1034C53.8644 66.3655 47.7658 69.0181 41.3013 69.7024ZM61.6077 61.2074L61.4392 61.0729C58.1876 58.4663 54.5255 56.4182 50.6024 55.0123C52.579 49.9751 53.6575 44.6305 53.7889 39.2209H71.0553C70.7689 47.4738 67.3977 55.3193 61.6077 61.2074ZM53.7889 36.7791C53.6807 32.1372 52.8773 27.5378 51.4057 23.134C55.5916 21.5268 59.4574 19.1858 62.8214 16.2212L62.8677 16.1797C67.8946 21.8942 70.7878 29.1729 71.0553 36.7791H53.7889ZM71.1041 37.7705C71.1041 37.8486 71.1163 37.9219 71.1163 38C71.1163 38.0781 71.1065 38.1514 71.1041 38.2295V37.7705Z" fill="white"/>
</svg>
