<svg width="10" height="52" viewBox="0 0 10 52" fill="none" xmlns="http://www.w3.org/2000/svg">
<path fill-rule="evenodd" clip-rule="evenodd" d="M4.00004 0H6.0002C8.20911 0 9.99992 1.79077 9.99992 4.00014V5.95739C9.99992 8.16682 8.20911 9.95758 6.0002 9.95758H4.00004C1.79082 9.95758 0 8.16682 0 5.95739V4.00014C0 1.79077 1.79082 0 4.00004 0ZM4.00004 21.0211H6.0002C8.20911 21.0211 9.99992 22.8118 9.99992 25.0212V26.9784C9.99992 29.1879 8.20911 30.9786 6.0002 30.9786H4.00004C1.79082 30.9786 0 29.1879 0 26.9784V25.0212C0 22.8118 1.79082 21.0211 4.00004 21.0211ZM6.0002 42.0421H4.00004C1.79082 42.0421 0 43.8335 0 46.0429V47.9995C0 50.2089 1.79082 52.0003 4.00004 52.0003H6.0002C8.20911 52.0003 9.99992 50.2089 9.99992 47.9995V46.0429C9.99992 43.8335 8.20911 42.0421 6.0002 42.0421Z" fill="white"/>
</svg>
