<svg width="72" height="72" viewBox="0 0 72 72" fill="none" xmlns="http://www.w3.org/2000/svg">
<path fill-rule="evenodd" clip-rule="evenodd" d="M71.9999 35.9997C71.9999 16.1176 55.8823 0 36 0C16.1176 0 0 16.1176 0 35.9997C0 55.8818 16.1176 71.9999 36 71.9999C55.8823 71.9999 71.9999 55.8818 71.9999 35.9997ZM66 35.9997C66 19.431 52.5683 6.00022 36 6.00022C19.4316 6.00022 5.99992 19.431 5.99992 35.9997C5.99992 52.5689 19.4316 66.0003 36 66.0003C52.5683 66.0003 66 52.5689 66 35.9997ZM25.9995 51.9938H32.1082V41.311H37.5965C45.3755 41.311 50.0046 36.5415 50.0046 30.6275C50.0046 24.7619 45.3755 19.9931 37.5965 19.9931H25.9995V51.9938ZM32.1082 35.5402V25.7167H37.5965C41.4144 25.7167 43.8484 27.7663 43.8484 30.6275C43.8484 33.4893 41.4144 35.5402 37.5965 35.5402H32.1082Z" fill="#5E6870"/>
</svg>
