<svg width="55" height="54" viewBox="0 0 55 54" fill="none" xmlns="http://www.w3.org/2000/svg">
<path fill-rule="evenodd" clip-rule="evenodd" d="M31.6291 28.3502C31.5505 28.3178 31.4734 28.2865 31.3933 28.2664C30.8228 28.098 30.1861 28.2327 29.7394 28.6795C29.731 28.6879 29.7232 28.6956 29.7156 28.7031C29.7028 28.7159 29.6908 28.7277 29.6789 28.7401L29.6771 28.7376C26.2857 32.4238 20.4982 38.7405 15.634 44.095C12.275 47.791 9.35378 51.0317 7.95272 52.6438C7.92251 52.6817 7.89047 52.7172 7.85439 52.7496C7.07303 53.5801 5.91554 53.9975 4.72971 53.9859C3.53584 53.9731 2.31576 53.5251 1.41231 52.637C1.40926 52.6341 1.40621 52.631 1.40317 52.6279C1.39852 52.6232 1.39387 52.6184 1.38922 52.6144C1.38147 52.6058 1.37378 52.5985 1.3658 52.5911C0.47745 51.6878 0.0334773 50.4644 0.0211083 49.2715C0.00446426 48.0897 0.422274 46.9324 1.25356 46.1514C1.2856 46.1159 1.32196 46.0835 1.35958 46.0529C2.97251 44.6538 6.2137 41.7333 9.91186 38.3763C15.2692 33.5138 21.5885 27.729 25.2747 24.3384C25.2867 24.3259 25.2989 24.3138 25.3119 24.3009C25.3193 24.2936 25.327 24.286 25.3351 24.2778C25.7819 23.831 25.9194 23.1878 25.7464 22.6143C25.7459 22.614 25.7455 22.6137 25.7453 22.6134C25.7447 22.6125 25.745 22.6111 25.7461 22.6064C25.7245 22.5323 25.6934 22.4632 25.6601 22.3916C24.3981 18.9361 25.1285 14.9433 27.8656 12.2076C32.469 7.60636 37.4656 3.63313 42.7486 0.286645C42.8094 0.248654 42.8661 0.213795 42.9216 0.1783C42.923 0.177148 42.9246 0.176085 42.9263 0.174981C42.9292 0.17314 42.9322 0.171181 42.9345 0.168498C43.4442 -0.0934308 44.0979 -0.00712519 44.5373 0.432282C45.067 0.960431 45.0843 1.81054 44.577 2.34054C44.5702 2.34623 44.5585 2.35635 44.5421 2.3706C44.5091 2.39934 44.4567 2.44485 44.3856 2.50456C43.6221 3.17232 40.6643 5.77768 36.6707 9.612C35.4571 10.7748 34.1448 12.0588 32.7706 13.4334C32.1157 14.087 32.1234 15.1611 32.7937 15.8326C33.4218 16.4592 34.4057 16.5058 35.0674 15.9709C35.0714 15.9666 35.0751 15.9629 35.081 15.9611C35.0855 15.957 35.09 15.9529 35.0945 15.9489C35.126 15.9207 35.1573 15.8926 35.1907 15.8595L35.1944 15.8552L40.3263 11.1848L47.1877 4.94288C47.7026 4.42813 48.5447 4.43672 49.067 4.95878C49.5909 5.48327 49.5983 6.32236 49.0833 6.83705L42.8387 13.6954L38.1807 18.8088C38.177 18.8131 38.1729 18.8174 38.1652 18.8254C38.1236 18.8664 38.0801 18.9135 38.0444 18.9612C37.5155 19.6204 37.5662 20.5947 38.1865 21.2147C38.8531 21.8806 39.9224 21.8903 40.5774 21.2355C41.963 19.8511 43.2423 18.5413 44.4099 17.332C48.2851 13.3049 50.8624 10.3929 51.522 9.63769C51.5665 9.5873 51.6024 9.546 51.6297 9.51452C51.6592 9.48061 51.6787 9.45811 51.6885 9.44798C52.2166 8.93995 53.0664 8.95712 53.5964 9.48649C54.0433 9.93326 54.1256 10.6053 53.8401 11.1224C53.8098 11.1677 53.7796 11.213 53.7515 11.2601L53.7475 11.2644C50.3972 16.5511 46.4218 21.5452 41.8144 26.1494C39.081 28.882 35.0963 29.6146 31.6387 28.36C31.6368 28.3582 31.6328 28.3545 31.6291 28.3502ZM3.15475 2.63451L19.5572 19.0291V22.3471L13.1111 27.8734C2.84152 16.1642 0.963399 7.84673 0.832347 3.67126L0.834228 3.6694C0.816957 3.30163 0.951363 2.9252 1.23534 2.64124C1.76755 2.10938 2.62562 2.10508 3.15475 2.63451ZM38.7924 51.1078C36.3224 48.2492 31.9231 43.1578 28.024 38.8768L33.3901 32.8393C40.0413 39.496 46.613 46.08 46.613 46.08C46.6488 46.1118 46.6849 46.1442 46.7191 46.1779C48.3844 47.7478 48.3862 50.7987 46.634 52.5796C46.6263 52.5882 46.6186 52.5962 46.613 52.601L46.5884 52.6262C44.8077 54.3747 41.7533 54.3747 40.1852 52.7094C40.1491 52.677 40.117 52.6415 40.0868 52.6035C39.7591 52.2266 39.3201 51.7185 38.7933 51.1088L38.7925 51.1079L38.7924 51.1078Z" fill="white"/>
</svg>
