<svg width="69" height="51" viewBox="0 0 69 51" fill="none" xmlns="http://www.w3.org/2000/svg">
<path fill-rule="evenodd" clip-rule="evenodd" d="M33.9998 7.00063C33.9998 3.13513 30.866 0.000976562 27 0.000976562C23.1341 0.000976562 19.9999 3.13513 19.9999 7.00063C19.9999 10.8668 23.1341 14.0009 27 14.0009C30.866 14.0009 33.9998 10.8668 33.9998 7.00063ZM52.2576 0.564049H62.1579C63.4005 0.564049 64.4081 1.57142 64.4081 2.81443V3.20064C64.4081 4.44243 63.4005 5.45038 62.1579 5.45038H52.2576C52.1268 5.45038 51.9986 5.43921 51.8739 5.41778L44.921 12.5123L61.9997 29.9386H37.9999L32.9209 24.7569L28.497 29.2709C27.56 30.228 26.0402 30.228 25.1029 29.2709C24.1658 28.3155 24.1658 26.7647 25.1029 25.8081L48.8616 1.56532C49.4609 0.953287 50.2982 0.732576 51.0692 0.903191C51.4141 0.688231 51.8213 0.564049 52.2576 0.564049ZM66.0001 34.0005H3.00017C1.34317 34.0005 6.10352e-05 35.3439 6.10352e-05 37.0007C6.10352e-05 38.658 1.34317 40.0014 3.00017 40.0014H66.0001C67.6567 40.0014 68.9998 38.658 68.9998 37.0007C68.9998 35.3439 67.6567 34.0005 66.0001 34.0005ZM15.9999 44.0004H66.0001C67.6567 44.0004 68.9998 45.3438 68.9998 47.0005C68.9998 48.6578 67.6567 50.0012 66.0001 50.0012H15.9999C14.3432 50.0012 13.0001 48.6578 13.0001 47.0005C13.0001 45.3438 14.3432 44.0004 15.9999 44.0004Z" fill="#5E6870"/>
</svg>
