<svg width="61" height="46" viewBox="0 0 61 46" fill="none" xmlns="http://www.w3.org/2000/svg">
<path fill-rule="evenodd" clip-rule="evenodd" d="M3.83703 12.0326C18.7488 -2.69136 42.9259 -2.69018 57.8373 12.0339C58.9118 13.0949 59.9089 14.2034 60.8286 15.3526L56.0238 20.0971C55.1348 18.9262 54.1511 17.8033 53.0726 16.7385C40.7926 4.61246 20.8818 4.61246 8.60181 16.7372C7.52339 17.8021 6.53967 18.9251 5.65066 20.0961L0.845947 15.3514C1.76555 14.2022 2.76258 13.0936 3.83703 12.0326ZM49.5785 26.4616C48.7605 25.2423 47.8075 24.0853 46.7197 23.011C37.9479 14.3497 23.7268 14.3497 14.9553 23.011C13.8675 24.0852 12.9145 25.2422 12.0965 26.4614L17.0033 31.3069C17.7102 30.0173 18.6156 28.8057 19.7193 27.7157C25.8595 21.653 35.8148 21.653 41.955 27.7157C43.0589 28.8058 43.9643 30.0176 44.6713 31.3073L49.5785 26.4616ZM35.602 33.9895C32.9707 31.3915 28.7042 31.3915 26.073 33.9895C23.4413 36.5881 23.4413 40.8 26.0727 43.3987C28.7037 45.9968 32.9704 45.9968 35.602 43.3987C38.2334 40.8 38.233 36.5869 35.602 33.9895Z" fill="white"/>
</svg>
