<svg width="44" height="44" viewBox="0 0 44 44" fill="none" xmlns="http://www.w3.org/2000/svg">
<path fill-rule="evenodd" clip-rule="evenodd" d="M21.999 17.6888L6.19713 1.88697C5.00725 0.697181 3.07769 0.697181 1.88753 1.88697C0.697647 3.07796 0.697647 5.00706 1.88753 6.1968L17.6891 21.9987L1.88753 37.8003C0.697647 38.9907 0.697647 40.9204 1.88753 42.1108C3.07769 43.3005 5.00725 43.3005 6.19713 42.1108L21.999 26.3086L37.8008 42.1108C38.991 43.3005 40.9202 43.3005 42.1104 42.1108C43.3006 40.9204 43.3006 38.9907 42.1104 37.8003L26.3088 21.9987L42.1104 6.1968C43.3006 5.00706 43.3006 3.07796 42.1104 1.88697C40.9202 0.697181 38.991 0.697181 37.8008 1.88697L21.999 17.6888Z" fill="white"/>
</svg>
