<svg width="96" height="96" viewBox="0 0 96 96" fill="none" xmlns="http://www.w3.org/2000/svg">
<path d="M28 48C28 46.9391 27.5786 45.9217 26.8284 45.1716C26.0783 44.4214 25.0609 44 24 44H8C6.93913 44 5.92172 44.4214 5.17157 45.1716C4.42143 45.9217 4 46.9391 4 48C4 49.0609 4.42143 50.0783 5.17157 50.8284C5.92172 51.5786 6.93913 52 8 52H24C25.0609 52 26.0783 51.5786 26.8284 50.8284C27.5786 50.0783 28 49.0609 28 48ZM88 44H72C70.9391 44 69.9217 44.4214 69.1716 45.1716C68.4214 45.9217 68 46.9391 68 48C68 49.0609 68.4214 50.0783 69.1716 50.8284C69.9217 51.5786 70.9391 52 72 52H88C89.0609 52 90.0783 51.5786 90.8284 50.8284C91.5786 50.0783 92 49.0609 92 48C92 46.9391 91.5786 45.9217 90.8284 45.1716C90.0783 44.4214 89.0609 44 88 44ZM48 4C46.9391 4 45.9217 4.42143 45.1716 5.17157C44.4214 5.92172 44 6.93913 44 8V24C44 25.0609 44.4214 26.0783 45.1716 26.8284C45.9217 27.5786 46.9391 28 48 28C49.0609 28 50.0783 27.5786 50.8284 26.8284C51.5786 26.0783 52 25.0609 52 24V8C52 6.93913 51.5786 5.92172 50.8284 5.17157C50.0783 4.42143 49.0609 4 48 4ZM48 68C46.9391 68 45.9217 68.4214 45.1716 69.1716C44.4214 69.9217 44 70.9391 44 72V88C44 89.0609 44.4214 90.0783 45.1716 90.8284C45.9217 91.5786 46.9391 92 48 92C49.0609 92 50.0783 91.5786 50.8284 90.8284C51.5786 90.0783 52 89.0609 52 88V72C52 70.9391 51.5786 69.9217 50.8284 69.1716C50.0783 68.4214 49.0609 68 48 68ZM28.2 62.143L16.889 73.455C16.5175 73.8264 16.2228 74.2673 16.0217 74.7526C15.8205 75.2379 15.717 75.758 15.7169 76.2833C15.7168 76.8086 15.8202 77.3288 16.0211 77.8141C16.2221 78.2995 16.5166 78.7405 16.888 79.112C17.2594 79.4835 17.7003 79.7782 18.1856 79.9793C18.6709 80.1805 19.191 80.284 19.7163 80.2841C20.2416 80.2842 20.7618 80.1808 21.2471 79.9799C21.7325 79.7789 22.1735 79.4844 22.545 79.113L33.858 67.799C34.608 67.0487 35.0293 66.0312 35.0291 64.9703C35.0289 63.9094 34.6073 62.892 33.857 62.142C33.1067 61.392 32.0892 60.9707 31.0283 60.9709C29.9674 60.9711 28.95 61.3927 28.2 62.143ZM67.8 33.858L79.112 22.546C79.4835 22.1746 79.7781 21.7336 79.9791 21.2483C80.1802 20.763 80.2836 20.2428 80.2836 19.7175C80.2836 19.1922 80.1802 18.672 79.9791 18.1867C79.7781 17.7014 79.4835 17.2604 79.112 16.889C78.7408 16.5176 78.3001 16.223 77.815 16.0221C77.33 15.8211 76.8101 15.7176 76.285 15.7176C75.7599 15.7176 75.24 15.8211 74.755 16.0221C74.2699 16.223 73.8292 16.5176 73.458 16.889L62.143 28.201C61.3928 28.9512 60.9714 29.9686 60.9714 31.0295C60.9714 32.0904 61.3928 33.1078 62.143 33.858C62.8932 34.6082 63.9106 35.0296 64.9715 35.0296C66.0324 35.0296 67.0498 34.6082 67.8 33.858ZM22.544 16.887C22.1741 16.5088 21.7328 16.2077 21.2457 16.0012C20.7586 15.7947 20.2354 15.6868 19.7064 15.6839C19.1773 15.681 18.653 15.7831 18.1636 15.9842C17.6743 16.1853 17.2297 16.4815 16.8557 16.8557C16.4816 17.2298 16.1855 17.6744 15.9844 18.1638C15.7834 18.6532 15.6814 19.1775 15.6844 19.7066C15.6874 20.2356 15.7953 20.7588 16.0019 21.2459C16.2085 21.7329 16.5097 22.1741 16.888 22.544L28.2 33.858C28.957 34.5742 29.9636 34.9669 31.0056 34.9525C32.0477 34.9382 33.043 34.5178 33.78 33.781C34.517 33.0442 34.9375 32.0489 34.952 31.0068C34.9666 29.9648 34.5741 28.9582 33.858 28.201L22.544 16.887ZM67.8 62.143C67.0471 61.4067 66.0342 60.9969 64.9811 61.0027C63.928 61.0085 62.9197 61.4294 62.175 62.174C61.4302 62.9186 61.0092 63.9268 61.0032 64.9799C60.9972 66.033 61.4068 67.046 62.143 67.799L73.456 79.113C73.8273 79.4844 74.2681 79.779 74.7532 79.98C75.2384 80.181 75.7584 80.2845 76.2835 80.2845C76.8086 80.2845 77.3286 80.181 77.8138 79.98C78.2989 79.779 78.7397 79.4844 79.111 79.113C79.8608 78.3624 80.2819 77.3449 80.2819 76.284C80.2819 75.2231 79.8608 74.2056 79.111 73.455L67.8 62.143Z" fill="#5E6870"/>
</svg>
