<svg width="48" height="56" viewBox="0 0 48 56" fill="none" xmlns="http://www.w3.org/2000/svg">
<path fill-rule="evenodd" clip-rule="evenodd" d="M48 10.4998C48 4.70154 43.3997 0 37.7251 0C32.0502 0 27.4498 4.70154 27.4498 10.4998C27.4498 11.0666 27.4938 11.6229 27.5784 12.1654L15.9329 19.2335C14.3103 18.1376 12.3656 17.4995 10.275 17.4995C4.60035 17.4995 0 22.2011 0 28C0 33.7988 4.60035 38.5004 10.275 38.5004C12.1965 38.5004 13.9948 37.9613 15.533 37.0232L27.5386 44.1134C27.4801 44.5671 27.4498 45.03 27.4498 45.5C27.4498 51.299 32.0502 56.0005 37.7251 56.0005C43.3997 56.0005 48 51.299 48 45.5C48 39.7012 43.3997 34.9996 37.7251 34.9996C34.6612 34.9996 31.9105 36.3701 30.0279 38.5439L19.6108 32.3917C20.2137 31.0555 20.5499 29.5678 20.5499 28C20.5499 26.6265 20.2919 25.3147 19.8227 24.1122L30.2965 17.7544C32.1673 19.7545 34.8039 21.0003 37.7251 21.0003C43.3997 21.0003 48 16.2988 48 10.4998ZM37.71 40.8536C40.2284 40.8536 42.2699 42.9332 42.2699 45.5C42.2699 48.0656 40.2284 50.1465 37.71 50.1465C35.1915 50.1465 33.15 48.0656 33.15 45.5C33.15 42.9332 35.1915 40.8536 37.71 40.8536ZM10.2901 23.3535C12.8082 23.3535 14.85 25.4338 14.85 28C14.85 30.5668 12.8082 32.6464 10.2901 32.6464C7.77158 32.6464 5.7301 30.5668 5.7301 28C5.7301 25.4338 7.77158 23.3535 10.2901 23.3535ZM37.71 5.85336C40.2284 5.85336 42.2699 7.93362 42.2699 10.4998C42.2699 13.0666 40.2284 15.1469 37.71 15.1469C35.1915 15.1469 33.15 13.0666 33.15 10.4998C33.15 7.93362 35.1915 5.85336 37.71 5.85336Z" fill="white"/>
</svg>
