<svg width="85" height="85" viewBox="0 0 85 85" fill="none" xmlns="http://www.w3.org/2000/svg">
<path fill-rule="evenodd" clip-rule="evenodd" d="M79.7482 48.2472H74.4979C71.5983 48.2472 69.2475 45.8977 69.2475 42.9967C69.2475 40.0988 71.5983 37.7468 74.4979 37.7468H79.7482C82.6475 37.7468 84.9976 40.0988 84.9976 42.9967C84.9976 45.8977 82.6475 48.2472 79.7482 48.2472ZM68.9842 24.4353C66.9344 26.485 63.6093 26.485 61.5595 24.4353C59.5088 22.3845 59.5088 19.0612 61.5595 17.0115L65.2713 13.2984C66.8092 11.7616 69.0638 11.3754 70.9598 12.146C71.5922 12.4018 72.1838 12.7867 72.6963 13.2984C73.2087 13.8119 73.5935 14.4037 73.8495 15.0359C74.6185 16.9308 74.2339 19.1854 72.6963 20.7241L68.9842 24.4353ZM42.9978 63.9975C31.4001 63.9975 21.9977 54.5939 21.9977 42.9967C21.9977 31.3989 31.4001 21.9971 42.9978 21.9971C54.5955 21.9971 63.9975 31.3989 63.9975 42.9967C63.9975 54.5939 54.5955 63.9975 42.9978 63.9975ZM42.9978 32.4975C37.1992 32.4975 32.4978 37.199 32.4978 42.9967C32.4978 48.7962 37.1992 53.4984 42.9978 53.4984C48.7966 53.4984 53.4972 48.7962 53.4972 42.9967C53.4972 37.199 48.7966 32.4975 42.9978 32.4975ZM42.9978 16.7471C40.0985 16.7471 37.7484 14.3976 37.7484 11.4966V6.24789C37.7484 3.34818 40.0985 0.998047 42.9978 0.998047C45.8977 0.998047 48.2478 3.34818 48.2478 6.24789V11.4966C48.2478 14.3976 45.8977 16.7471 42.9978 16.7471ZM17.0119 24.4353L13.2989 20.7241C11.2495 18.6731 11.2495 15.3493 13.2989 13.2984C15.35 11.2481 18.6735 11.2481 20.724 13.2984L24.436 17.0115C26.4864 19.0612 26.4864 22.3845 24.436 24.4353C22.3859 26.485 19.0617 26.485 17.0119 24.4353ZM16.7477 42.9967C16.7477 45.8977 14.3972 48.2472 11.4977 48.2472H6.24794C3.34805 48.2472 0.997314 45.8977 0.997314 42.9967C0.997314 40.0988 3.34805 37.7468 6.24794 37.7468H11.4977C14.3972 37.7468 16.7477 40.0988 16.7477 42.9967ZM17.0119 61.5581C19.0617 59.5084 22.3859 59.5084 24.436 61.5581C26.4864 63.6077 26.4864 66.934 24.436 68.9837L20.724 72.695C18.6735 74.7459 15.35 74.7459 13.2989 72.695C11.2495 70.6454 11.2495 67.3202 13.2989 65.2718L17.0119 61.5581ZM42.9978 69.2468C45.8977 69.2468 48.2478 71.5971 48.2478 74.4968V79.7473C48.2478 82.6464 45.8977 84.9972 42.9978 84.9972C40.0985 84.9972 37.7484 82.6464 37.7484 79.7473V74.4968C37.7484 71.5971 40.0985 69.2468 42.9978 69.2468ZM68.9842 61.5581L72.6963 65.2718C74.7467 67.3202 74.7467 70.6454 72.6963 72.695C70.6461 74.7459 67.3217 74.7459 65.2713 72.695L61.5595 68.9837C59.5088 66.934 59.5088 63.6077 61.5595 61.5581C63.6093 59.5084 66.9344 59.5084 68.9842 61.5581Z" fill="#CCCCCC"/>
</svg>
