<svg width="249" height="116" viewBox="0 0 249 116" fill="none" xmlns="http://www.w3.org/2000/svg">
<path fill-rule="evenodd" clip-rule="evenodd" d="M198 8.00042C225.614 8.00042 248 30.3857 248 58.0007C248 85.6145 225.614 108 198 108C170.386 108 148 85.6145 148 58.0007C148 30.3857 170.386 8.00042 198 8.00042Z" fill="#CCCCCC"/>
<path d="M182 58.0007C182 28.1766 157.823 4.00042 128 4.00042C98.1767 4.00042 74.0001 28.1766 74.0001 58.0007C74.0001 87.8237 98.1768 112 128 112C157.823 112 182 87.8237 182 58.0007Z" fill="#CCCCCC" stroke="#F2F2F2" stroke-width="8"/>
<path d="M112 58.0007C112 28.1766 87.8233 4.00042 58 4.00042C28.1767 4.00042 4.00011 28.1766 4.00011 58.0007C4.00011 87.8237 28.1768 112 58 112C87.8232 112 112 87.8237 112 58.0007Z" fill="#CCCCCC" stroke="#F2F2F2" stroke-width="8"/>
</svg>
